<svg xmlns="http://www.w3.org/2000/svg" xmlns:xlink="http://www.w3.org/1999/xlink" width="500" zoomAndPan="magnify" viewBox="0 0 375 149.999998" height="200" preserveAspectRatio="xMidYMid meet" version="1.0"><defs><g/></defs><g fill="#ffffff" fill-opacity="1"><g transform="translate(0.000003125, 134.783193)"><g><path d="M 16.71875 0.390625 C 14.132812 0.390625 11.820312 -0.0664062 9.78125 -0.984375 C 7.75 -1.898438 6.148438 -3.171875 4.984375 -4.796875 C 3.828125 -6.421875 3.234375 -8.300781 3.203125 -10.4375 L 8.640625 -10.4375 C 8.828125 -8.601562 9.582031 -7.054688 10.90625 -5.796875 C 12.238281 -4.546875 14.175781 -3.921875 16.71875 -3.921875 C 19.144531 -3.921875 21.054688 -4.53125 22.453125 -5.75 C 23.859375 -6.96875 24.5625 -8.53125 24.5625 -10.4375 C 24.5625 -11.925781 24.148438 -13.140625 23.328125 -14.078125 C 22.503906 -15.015625 21.476562 -15.722656 20.25 -16.203125 C 19.019531 -16.691406 17.351562 -17.21875 15.25 -17.78125 C 12.675781 -18.457031 10.613281 -19.128906 9.0625 -19.796875 C 7.507812 -20.472656 6.179688 -21.53125 5.078125 -22.96875 C 3.972656 -24.40625 3.421875 -26.34375 3.421875 -28.78125 C 3.421875 -30.90625 3.960938 -32.789062 5.046875 -34.4375 C 6.128906 -36.082031 7.648438 -37.351562 9.609375 -38.25 C 11.578125 -39.15625 13.832031 -39.609375 16.375 -39.609375 C 20.039062 -39.609375 23.039062 -38.691406 25.375 -36.859375 C 27.71875 -35.023438 29.039062 -32.59375 29.34375 -29.5625 L 23.734375 -29.5625 C 23.546875 -31.0625 22.757812 -32.378906 21.375 -33.515625 C 19.988281 -34.660156 18.15625 -35.234375 15.875 -35.234375 C 13.738281 -35.234375 12 -34.679688 10.65625 -33.578125 C 9.3125 -32.472656 8.640625 -30.925781 8.640625 -28.9375 C 8.640625 -27.519531 9.039062 -26.363281 9.84375 -25.46875 C 10.644531 -24.570312 11.632812 -23.890625 12.8125 -23.421875 C 13.988281 -22.953125 15.644531 -22.421875 17.78125 -21.828125 C 20.363281 -21.109375 22.4375 -20.398438 24 -19.703125 C 25.570312 -19.015625 26.921875 -17.953125 28.046875 -16.515625 C 29.171875 -15.078125 29.734375 -13.125 29.734375 -10.65625 C 29.734375 -8.75 29.226562 -6.953125 28.21875 -5.265625 C 27.207031 -3.585938 25.707031 -2.222656 23.71875 -1.171875 C 21.738281 -0.128906 19.40625 0.390625 16.71875 0.390625 Z M 16.71875 0.390625 "/></g></g></g><g fill="#ffffff" fill-opacity="1"><g transform="translate(32.921476, 134.783193)"><g><path d="M 9.421875 -34.953125 L 9.421875 -21.875 L 23.671875 -21.875 L 23.671875 -17.671875 L 9.421875 -17.671875 L 9.421875 -4.203125 L 25.359375 -4.203125 L 25.359375 0 L 4.3125 0 L 4.3125 -39.15625 L 25.359375 -39.15625 L 25.359375 -34.953125 Z M 9.421875 -34.953125 "/></g></g></g><g fill="#ffffff" fill-opacity="1"><g transform="translate(61.69271, 134.783193)"><g><path d="M 2.40625 -19.578125 C 2.40625 -23.390625 3.265625 -26.816406 4.984375 -29.859375 C 6.710938 -32.910156 9.0625 -35.296875 12.03125 -37.015625 C 15 -38.742188 18.300781 -39.609375 21.9375 -39.609375 C 26.195312 -39.609375 29.914062 -38.578125 33.09375 -36.515625 C 36.269531 -34.460938 38.585938 -31.546875 40.046875 -27.765625 L 33.9375 -27.765625 C 32.851562 -30.117188 31.289062 -31.929688 29.25 -33.203125 C 27.21875 -34.472656 24.78125 -35.109375 21.9375 -35.109375 C 19.207031 -35.109375 16.753906 -34.472656 14.578125 -33.203125 C 12.410156 -31.929688 10.707031 -30.125 9.46875 -27.78125 C 8.238281 -25.445312 7.625 -22.710938 7.625 -19.578125 C 7.625 -16.472656 8.238281 -13.75 9.46875 -11.40625 C 10.707031 -9.070312 12.410156 -7.269531 14.578125 -6 C 16.753906 -4.726562 19.207031 -4.09375 21.9375 -4.09375 C 24.78125 -4.09375 27.21875 -4.71875 29.25 -5.96875 C 31.289062 -7.226562 32.851562 -9.035156 33.9375 -11.390625 L 40.046875 -11.390625 C 38.585938 -7.648438 36.269531 -4.757812 33.09375 -2.71875 C 29.914062 -0.675781 26.195312 0.34375 21.9375 0.34375 C 18.300781 0.34375 15 -0.503906 12.03125 -2.203125 C 9.0625 -3.910156 6.710938 -6.28125 4.984375 -9.3125 C 3.265625 -12.34375 2.40625 -15.765625 2.40625 -19.578125 Z M 2.40625 -19.578125 "/></g></g></g><g fill="#ffffff" fill-opacity="1"><g transform="translate(104.989775, 134.783193)"><g><path d="M 9.3125 -39.09375 L 9.3125 -14.359375 C 9.3125 -10.878906 10.160156 -8.296875 11.859375 -6.609375 C 13.566406 -4.929688 15.929688 -4.09375 18.953125 -4.09375 C 21.953125 -4.09375 24.300781 -4.929688 26 -6.609375 C 27.695312 -8.296875 28.546875 -10.878906 28.546875 -14.359375 L 28.546875 -39.09375 L 33.65625 -39.09375 L 33.65625 -14.421875 C 33.65625 -11.160156 33 -8.414062 31.6875 -6.1875 C 30.382812 -3.96875 28.617188 -2.316406 26.390625 -1.234375 C 24.160156 -0.148438 21.664062 0.390625 18.90625 0.390625 C 16.132812 0.390625 13.632812 -0.148438 11.40625 -1.234375 C 9.1875 -2.316406 7.429688 -3.96875 6.140625 -6.1875 C 4.847656 -8.414062 4.203125 -11.160156 4.203125 -14.421875 L 4.203125 -39.09375 Z M 9.3125 -39.09375 "/></g></g></g><g fill="#ffffff" fill-opacity="1"><g transform="translate(142.846668, 134.783193)"><g><path d="M 24.90625 0 L 15.59375 -15.984375 L 9.421875 -15.984375 L 9.421875 0 L 4.3125 0 L 4.3125 -39.09375 L 16.9375 -39.09375 C 19.894531 -39.09375 22.390625 -38.585938 24.421875 -37.578125 C 26.460938 -36.566406 27.988281 -35.203125 29 -33.484375 C 30.007812 -31.765625 30.515625 -29.800781 30.515625 -27.59375 C 30.515625 -24.90625 29.738281 -22.53125 28.1875 -20.46875 C 26.632812 -18.414062 24.304688 -17.050781 21.203125 -16.375 L 31.015625 0 Z M 9.421875 -20.078125 L 16.9375 -20.078125 C 19.707031 -20.078125 21.78125 -20.757812 23.15625 -22.125 C 24.539062 -23.488281 25.234375 -25.3125 25.234375 -27.59375 C 25.234375 -29.914062 24.550781 -31.710938 23.1875 -32.984375 C 21.820312 -34.253906 19.738281 -34.890625 16.9375 -34.890625 L 9.421875 -34.890625 Z M 9.421875 -20.078125 "/></g></g></g><g fill="#ffffff" fill-opacity="1"><g transform="translate(176.945912, 134.783193)"><g><path d="M 9.421875 -39.09375 L 9.421875 0 L 4.3125 0 L 4.3125 -39.09375 Z M 9.421875 -39.09375 "/></g></g></g><g fill="#ffffff" fill-opacity="1"><g transform="translate(190.742643, 134.783193)"><g><path d="M 28.390625 -39.09375 L 28.390625 -34.953125 L 17.71875 -34.953125 L 17.71875 0 L 12.625 0 L 12.625 -34.953125 L 1.90625 -34.953125 L 1.90625 -39.09375 Z M 28.390625 -39.09375 "/></g></g></g><g fill="#ffffff" fill-opacity="1"><g transform="translate(221.084239, 134.783193)"><g><path d="M 31.6875 -39.09375 L 18.953125 -14.75 L 18.953125 0 L 13.859375 0 L 13.859375 -14.75 L 1.0625 -39.09375 L 6.734375 -39.09375 L 16.375 -19.296875 L 26.03125 -39.09375 Z M 31.6875 -39.09375 "/></g></g></g><g fill="#ff3131" fill-opacity="1"><g transform="translate(253.847185, 134.783193)"><g><path d="M 5.953125 0.34375 C 4.972656 0.34375 4.144531 0.00390625 3.46875 -0.671875 C 2.800781 -1.347656 2.46875 -2.171875 2.46875 -3.140625 C 2.46875 -4.109375 2.800781 -4.929688 3.46875 -5.609375 C 4.144531 -6.285156 4.972656 -6.625 5.953125 -6.625 C 6.878906 -6.625 7.671875 -6.285156 8.328125 -5.609375 C 8.984375 -4.929688 9.3125 -4.109375 9.3125 -3.140625 C 9.3125 -2.171875 8.984375 -1.347656 8.328125 -0.671875 C 7.671875 0.00390625 6.878906 0.34375 5.953125 0.34375 Z M 5.953125 0.34375 "/></g></g></g><g fill="#ffffff" fill-opacity="1"><g transform="translate(0.000003125, 84.706943)"><g><path d="M 9.421875 -34.953125 L 9.421875 -21.875 L 23.671875 -21.875 L 23.671875 -17.671875 L 9.421875 -17.671875 L 9.421875 -4.203125 L 25.359375 -4.203125 L 25.359375 0 L 4.3125 0 L 4.3125 -39.15625 L 25.359375 -39.15625 L 25.359375 -34.953125 Z M 9.421875 -34.953125 "/></g></g></g><g fill="#ffffff" fill-opacity="1"><g transform="translate(28.767654, 84.706943)"><g><path d="M 9.421875 -4.15625 L 23.109375 -4.15625 L 23.109375 0 L 4.3125 0 L 4.3125 -39.09375 L 9.421875 -39.09375 Z M 9.421875 -4.15625 "/></g></g></g><g fill="#ffffff" fill-opacity="1"><g transform="translate(52.993051, 84.706943)"><g><path d="M 9.421875 -39.09375 L 9.421875 0 L 4.3125 0 L 4.3125 -39.09375 Z M 9.421875 -39.09375 "/></g></g></g><g fill="#ffffff" fill-opacity="1"><g transform="translate(66.788071, 84.706943)"><g><path d="M 28.390625 -39.09375 L 28.390625 -34.953125 L 17.71875 -34.953125 L 17.71875 0 L 12.625 0 L 12.625 -34.953125 L 1.90625 -34.953125 L 1.90625 -39.09375 Z M 28.390625 -39.09375 "/></g></g></g><g fill="#ffffff" fill-opacity="1"><g transform="translate(97.125889, 84.706943)"><g><path d="M 9.421875 -34.953125 L 9.421875 -21.875 L 23.671875 -21.875 L 23.671875 -17.671875 L 9.421875 -17.671875 L 9.421875 -4.203125 L 25.359375 -4.203125 L 25.359375 0 L 4.3125 0 L 4.3125 -39.15625 L 25.359375 -39.15625 L 25.359375 -34.953125 Z M 9.421875 -34.953125 "/></g></g></g><g fill="#ffffff" fill-opacity="1"><g transform="translate(125.89354, 84.706943)"><g><path d="M 16.71875 0.390625 C 14.132812 0.390625 11.820312 -0.0664062 9.78125 -0.984375 C 7.75 -1.898438 6.148438 -3.171875 4.984375 -4.796875 C 3.828125 -6.421875 3.234375 -8.300781 3.203125 -10.4375 L 8.640625 -10.4375 C 8.828125 -8.601562 9.582031 -7.054688 10.90625 -5.796875 C 12.238281 -4.546875 14.175781 -3.921875 16.71875 -3.921875 C 19.144531 -3.921875 21.054688 -4.53125 22.453125 -5.75 C 23.859375 -6.96875 24.5625 -8.53125 24.5625 -10.4375 C 24.5625 -11.925781 24.148438 -13.140625 23.328125 -14.078125 C 22.503906 -15.015625 21.476562 -15.722656 20.25 -16.203125 C 19.019531 -16.691406 17.351562 -17.21875 15.25 -17.78125 C 12.675781 -18.457031 10.613281 -19.128906 9.0625 -19.796875 C 7.507812 -20.472656 6.179688 -21.53125 5.078125 -22.96875 C 3.972656 -24.40625 3.421875 -26.34375 3.421875 -28.78125 C 3.421875 -30.90625 3.960938 -32.789062 5.046875 -34.4375 C 6.128906 -36.082031 7.648438 -37.351562 9.609375 -38.25 C 11.578125 -39.15625 13.832031 -39.609375 16.375 -39.609375 C 20.039062 -39.609375 23.039062 -38.691406 25.375 -36.859375 C 27.71875 -35.023438 29.039062 -32.59375 29.34375 -29.5625 L 23.734375 -29.5625 C 23.546875 -31.0625 22.757812 -32.378906 21.375 -33.515625 C 19.988281 -34.660156 18.15625 -35.234375 15.875 -35.234375 C 13.738281 -35.234375 12 -34.679688 10.65625 -33.578125 C 9.3125 -32.472656 8.640625 -30.925781 8.640625 -28.9375 C 8.640625 -27.519531 9.039062 -26.363281 9.84375 -25.46875 C 10.644531 -24.570312 11.632812 -23.890625 12.8125 -23.421875 C 13.988281 -22.953125 15.644531 -22.421875 17.78125 -21.828125 C 20.363281 -21.109375 22.4375 -20.398438 24 -19.703125 C 25.570312 -19.015625 26.921875 -17.953125 28.046875 -16.515625 C 29.171875 -15.078125 29.734375 -13.125 29.734375 -10.65625 C 29.734375 -8.75 29.226562 -6.953125 28.21875 -5.265625 C 27.207031 -3.585938 25.707031 -2.222656 23.71875 -1.171875 C 21.738281 -0.128906 19.40625 0.390625 16.71875 0.390625 Z M 16.71875 0.390625 "/></g></g></g><g fill="#ffffff" fill-opacity="1"><g transform="translate(158.810916, 84.706943)"><g><path d="M 5.109375 -39.09375 L 10.765625 -39.09375 L 5.390625 -26.359375 L 1.796875 -26.359375 Z M 5.109375 -39.09375 "/></g></g></g><g fill="#ffffff" fill-opacity="1"><g transform="translate(0.000003125, 34.418194)"><g><path d="M 17.578125 -26.25 L 17.578125 -24.828125 L 10.09375 -24.828125 L 10.09375 0 L 8.40625 0 L 8.40625 -24.828125 L 0.9375 -24.828125 L 0.9375 -26.25 Z M 17.578125 -26.25 "/></g></g></g><g fill="#ffffff" fill-opacity="1"><g transform="translate(18.505461, 34.418194)"><g><path d="M 21.765625 -26.25 L 21.765625 0 L 20.078125 0 L 20.078125 -12.71875 L 4.75 -12.71875 L 4.75 0 L 3.0625 0 L 3.0625 -26.25 L 4.75 -26.25 L 4.75 -14.140625 L 20.078125 -14.140625 L 20.078125 -26.25 Z M 21.765625 -26.25 "/></g></g></g><g fill="#ffffff" fill-opacity="1"><g transform="translate(43.366327, 34.418194)"><g><path d="M 4.75 -24.828125 L 4.75 -13.875 L 15.21875 -13.875 L 15.21875 -12.453125 L 4.75 -12.453125 L 4.75 -1.421875 L 16.34375 -1.421875 L 16.34375 0 L 3.0625 0 L 3.0625 -26.25 L 16.34375 -26.25 L 16.34375 -24.828125 Z M 4.75 -24.828125 "/></g></g></g></svg>